<svg width="46" height="46" viewBox="0 0 46 46" fill="none" xmlns="http://www.w3.org/2000/svg">
<path d="M28.6665 4.71741C28.7274 4.9684 28.8465 5.20149 29.0144 5.39773C29.1823 5.59397 29.3941 5.74782 29.6327 5.84677C29.8712 5.94572 30.1297 5.98698 30.3872 5.96718C30.6447 5.94739 30.8939 5.8671 31.1145 5.73286C36.6428 2.36692 42.9689 8.6908 39.603 14.2191C39.4687 14.4396 39.3884 14.6886 39.3685 14.9459C39.3485 15.2033 39.3896 15.4617 39.4883 15.7002C39.587 15.9387 39.7406 16.1506 39.9366 16.3186C40.1326 16.4866 40.3654 16.606 40.6162 16.667C46.9061 18.1925 46.9061 27.1388 40.6162 28.6665C40.3652 28.7274 40.1321 28.8465 39.9359 29.0144C39.7396 29.1823 39.5858 29.3941 39.4868 29.6327C39.3879 29.8712 39.3466 30.1297 39.3664 30.3872C39.3862 30.6447 39.4665 30.8939 39.6007 31.1145C42.9667 36.6428 36.6428 42.9689 31.1145 39.603C30.894 39.4687 30.645 39.3884 30.3877 39.3685C30.1303 39.3485 29.8719 39.3896 29.6334 39.4883C29.3949 39.587 29.183 39.7406 29.015 39.9366C28.847 40.1326 28.7276 40.3654 28.6665 40.6162C27.1411 46.9061 18.1947 46.9061 16.667 40.6162C16.6062 40.3652 16.487 40.1321 16.3192 39.9359C16.1513 39.7396 15.9395 39.5858 15.7009 39.4868C15.4624 39.3879 15.2039 39.3466 14.9464 39.3664C14.6889 39.3862 14.4397 39.4665 14.2191 39.6007C8.6908 42.9667 2.36466 36.6428 5.73059 31.1145C5.86485 30.894 5.94521 30.645 5.96514 30.3877C5.98507 30.1303 5.94401 29.8719 5.84529 29.6334C5.74658 29.3949 5.593 29.183 5.39702 29.015C5.20104 28.847 4.9682 28.7276 4.71741 28.6665C-1.57247 27.1411 -1.57247 18.1947 4.71741 16.667C4.9684 16.6062 5.20149 16.487 5.39773 16.3192C5.59397 16.1513 5.74782 15.9395 5.84677 15.7009C5.94572 15.4624 5.98698 15.2039 5.96718 14.9464C5.94739 14.6889 5.8671 14.4397 5.73286 14.2191C2.36692 8.6908 8.6908 2.36466 14.2191 5.73059C14.4393 5.86586 14.6885 5.94704 14.9461 5.96749C15.2038 5.98793 15.4626 5.94706 15.7014 5.84822C15.9402 5.74938 16.1522 5.59537 16.3201 5.39882C16.4879 5.20227 16.6068 4.96876 16.667 4.71741C18.1925 -1.57247 27.1388 -1.57247 28.6665 4.71741ZM22.6668 15.8669C20.8634 15.8669 19.1338 16.5833 17.8586 17.8586C16.5833 19.1338 15.8669 20.8634 15.8669 22.6668C15.8669 24.4702 16.5833 26.1998 17.8586 27.475C19.1338 28.7503 20.8634 29.4667 22.6668 29.4667C24.4702 29.4667 26.1998 28.7503 27.475 27.475C28.7503 26.1998 29.4667 24.4702 29.4667 22.6668C29.4667 20.8634 28.7503 19.1338 27.475 17.8586C26.1998 16.5833 24.4702 15.8669 22.6668 15.8669Z" fill="#FFE787"/>
</svg>
